<svg xmlns="http://www.w3.org/2000/svg" xmlns:xlink="http://www.w3.org/1999/xlink" viewBox="0 0 1002.3 1002.3"><defs><style>.cls-1{fill:#fff;}.cls-2{fill:url(#linear-gradient);}</style><linearGradient id="linear-gradient" x1="546.36" y1="137.03" x2="459.37" y2="816.49" gradientUnits="userSpaceOnUse"><stop offset="0" stop-color="#992aff"/><stop offset="0.18" stop-color="#9021fa"/><stop offset="0.47" stop-color="#760aee"/><stop offset="0.57" stop-color="#6c00e9"/><stop offset="0.87" stop-color="#4500d4"/><stop offset="0.99" stop-color="#3700aa"/></linearGradient></defs><title>Asset 3</title><g id="Layer_2" data-name="Layer 2"><g id="Layer_1-2" data-name="Layer 1"><rect class="cls-1" width="1002.3" height="1002.3" rx="12" ry="12"/><rect class="cls-2" x="9.36" y="9.99" width="980.94" height="980.94" rx="12" ry="12"/><path class="cls-1" d="M811.53,354.37a29,29,0,0,0-29,29v26.18L734,271.86a30.41,30.41,0,1,0-57.36,20.22l51.84,147L616.22,266.22a33.32,33.32,0,1,0-55.89,36.31L649.7,440.09l104,58.18a11.6,11.6,0,0,1-11.32,20.26l-58.76-32.74c-19-11.32-60.19-29.42-98.29-23-31.63,5.37-60.33,21.56-80.56,46.49a33,33,0,0,0-3.81,5.95L126.06,135.37c-5.33-5.69-14-7.19-18.56-2.91-4.19,4-3.75,13.65,1.59,19.36L502.34,574.71c-16.57,3.89-26.84,19.82-25,37.09,4.38,41.76,36.2,76.76,59.27,92.67l130.13,95v93.21H840.5V383.34A29,29,0,0,0,811.53,354.37ZM615.93,654.72a63.83,63.83,0,0,1-53.36-16.37,13.36,13.36,0,0,0,16.92-1.48c5.71-5.34,24.65-18.79,4-38L544.7,559.61a32.55,32.55,0,0,0,11.19-8.79,64.24,64.24,0,1,1,60,103.91Z"/><rect class="cls-1" x="223.11" y="265.55" width="15.32" height="259.53" transform="translate(-221.08 322.14) rotate(-50.53)"/><rect class="cls-1" x="255.82" y="418.35" width="15.31" height="172.64" transform="translate(-304.93 472.61) rotate(-59.2)"/></g></g></svg>